<svg width="101" height="100" viewBox="0 0 101 100" fill="none" xmlns="http://www.w3.org/2000/svg">
<g id="clarity:date-line">
<path id="Vector" d="M90.0832 16.6667H81.0554V22.2223H89.3887V83.3334H11.611V22.2223H19.9443V16.6667H10.9165C10.2672 16.6776 9.62633 16.8163 9.03059 17.0748C8.43484 17.3334 7.89588 17.7068 7.44446 18.1737C6.99305 18.6406 6.63803 19.1918 6.3997 19.7959C6.16136 20.4 6.04437 21.0452 6.0554 21.6945V83.8612C6.04437 84.5105 6.16136 85.1557 6.3997 85.7598C6.63803 86.3639 6.99305 86.9152 7.44446 87.382C7.89588 87.8489 8.43484 88.2223 9.03059 88.4809C9.62633 88.7394 10.2672 88.8781 10.9165 88.889H90.0832C90.7325 88.8781 91.3734 88.7394 91.9691 88.4809C92.5648 88.2223 93.1038 87.8489 93.5552 87.382C94.0066 86.9152 94.3617 86.3639 94.6 85.7598C94.8383 85.1557 94.9553 84.5105 94.9443 83.8612V21.6945C94.9553 21.0452 94.8383 20.4 94.6 19.7959C94.3617 19.1918 94.0066 18.6406 93.5552 18.1737C93.1038 17.7068 92.5648 17.3334 91.9691 17.0748C91.3734 16.8163 90.7325 16.6776 90.0832 16.6667Z" fill="#1B3764"/>
<path id="Vector_2" d="M22.7222 38.8889H28.2777V44.4445H22.7222V38.8889Z" fill="#1B3764"/>
<path id="Vector_3" d="M39.3887 38.8889H44.9442V44.4445H39.3887V38.8889Z" fill="#1B3764"/>
<path id="Vector_4" d="M56.0557 38.8889H61.6112V44.4445H56.0557V38.8889Z" fill="#1B3764"/>
<path id="Vector_5" d="M72.7222 38.8889H78.2777V44.4445H72.7222V38.8889Z" fill="#1B3764"/>
<path id="Vector_6" d="M22.7222 52.7778H28.2777V58.3334H22.7222V52.7778Z" fill="#1B3764"/>
<path id="Vector_7" d="M39.3887 52.7778H44.9442V58.3334H39.3887V52.7778Z" fill="#1B3764"/>
<path id="Vector_8" d="M56.0557 52.7778H61.6112V58.3334H56.0557V52.7778Z" fill="#1B3764"/>
<path id="Vector_9" d="M72.7222 52.7778H78.2777V58.3334H72.7222V52.7778Z" fill="#1B3764"/>
<path id="Vector_10" d="M22.7222 66.6667H28.2777V72.2223H22.7222V66.6667Z" fill="#1B3764"/>
<path id="Vector_11" d="M39.3887 66.6667H44.9442V72.2223H39.3887V66.6667Z" fill="#1B3764"/>
<path id="Vector_12" d="M56.0557 66.6667H61.6112V72.2223H56.0557V66.6667Z" fill="#1B3764"/>
<path id="Vector_13" d="M72.7222 66.6667H78.2777V72.2223H72.7222V66.6667Z" fill="#1B3764"/>
<path id="Vector_14" d="M28.2778 27.7779C29.0145 27.7779 29.721 27.4852 30.242 26.9643C30.7629 26.4434 31.0556 25.7368 31.0556 25.0001V8.33344C31.0556 7.59673 30.7629 6.89019 30.242 6.36926C29.721 5.84832 29.0145 5.55566 28.2778 5.55566C27.5411 5.55566 26.8345 5.84832 26.3136 6.36926C25.7927 6.89019 25.5 7.59673 25.5 8.33344V25.0001C25.5 25.7368 25.7927 26.4434 26.3136 26.9643C26.8345 27.4852 27.5411 27.7779 28.2778 27.7779Z" fill="#1B3764"/>
<path id="Vector_15" d="M72.7221 27.7779C73.4588 27.7779 74.1654 27.4852 74.6863 26.9643C75.2072 26.4434 75.4999 25.7368 75.4999 25.0001V8.33344C75.4999 7.59673 75.2072 6.89019 74.6863 6.36926C74.1654 5.84832 73.4588 5.55566 72.7221 5.55566C71.9854 5.55566 71.2789 5.84832 70.7579 6.36926C70.237 6.89019 69.9443 7.59673 69.9443 8.33344V25.0001C69.9443 25.7368 70.237 26.4434 70.7579 26.9643C71.2789 27.4852 71.9854 27.7779 72.7221 27.7779Z" fill="#1B3764"/>
<path id="Vector_16" d="M36.6113 16.6667H64.3891V22.2223H36.6113V16.6667Z" fill="#1B3764"/>
</g>
</svg>
