<svg width="81" height="80" viewBox="0 0 81 80" fill="none" xmlns="http://www.w3.org/2000/svg">
<g id="mdi:location">
<path id="Vector" d="M40.625 38.3334C38.4148 38.3334 36.2952 37.4554 34.7324 35.8926C33.1696 34.3298 32.2916 32.2102 32.2916 30.0001C32.2916 27.7899 33.1696 25.6703 34.7324 24.1075C36.2952 22.5447 38.4148 21.6667 40.625 21.6667C42.8351 21.6667 44.9547 22.5447 46.5175 24.1075C48.0803 25.6703 48.9583 27.7899 48.9583 30.0001C48.9583 31.0944 48.7427 32.1781 48.324 33.1891C47.9052 34.2002 47.2913 35.1188 46.5175 35.8926C45.7437 36.6665 44.825 37.2803 43.814 37.6991C42.8029 38.1179 41.7193 38.3334 40.625 38.3334ZM40.625 6.66675C34.4366 6.66675 28.5016 9.12507 24.1258 13.5009C19.75 17.8768 17.2916 23.8117 17.2916 30.0001C17.2916 47.5001 40.625 73.3334 40.625 73.3334C40.625 73.3334 63.9583 47.5001 63.9583 30.0001C63.9583 23.8117 61.5 17.8768 57.1241 13.5009C52.7483 9.12507 46.8133 6.66675 40.625 6.66675Z" fill="#233255"/>
</g>
</svg>
