<svg width="30" height="31" viewBox="0 0 30 31" fill="none" xmlns="http://www.w3.org/2000/svg">
<g clip-path="url(#clip0_56_3298)">
<path d="M18.8125 6.75C20.0335 6.98821 21.1555 7.58532 22.0351 8.46492C22.9147 9.34452 23.5118 10.4666 23.75 11.6875M18.8125 1.75C21.3491 2.0318 23.7145 3.16772 25.5203 4.97126C27.3262 6.7748 28.4651 9.13876 28.75 11.675M27.5 21.65V25.4C27.5015 25.7481 27.4301 26.0927 27.2907 26.4117C27.1512 26.7307 26.9467 27.017 26.6901 27.2523C26.4336 27.4877 26.1308 27.6669 25.801 27.7784C25.4712 27.8899 25.1218 27.9313 24.775 27.9C20.9286 27.4821 17.2338 26.1677 13.9875 24.0625C10.9673 22.1433 8.40671 19.5827 6.48754 16.5625C4.37501 13.3015 3.06034 9.58874 2.65004 5.725C2.6188 5.37933 2.65988 5.03095 2.77066 4.70203C2.88145 4.37311 3.0595 4.07086 3.2935 3.81453C3.52749 3.55819 3.81229 3.35339 4.12978 3.21315C4.44726 3.07292 4.79046 3.00033 5.13754 3H8.88754C9.49417 2.99403 10.0823 3.20885 10.5422 3.60442C11.0022 3.99998 11.3026 4.54931 11.3875 5.15C11.5458 6.35008 11.8394 7.52841 12.2625 8.6625C12.4307 9.10991 12.4671 9.59614 12.3674 10.0636C12.2677 10.5311 12.0361 10.9601 11.7 11.3L10.1125 12.8875C11.892 16.0169 14.4831 18.6081 17.6125 20.3875L19.2 18.8C19.5399 18.4639 19.969 18.2323 20.4364 18.1326C20.9039 18.0329 21.3901 18.0693 21.8375 18.2375C22.9716 18.6607 24.15 18.9542 25.35 19.1125C25.9572 19.1982 26.5118 19.504 26.9082 19.9719C27.3046 20.4397 27.5152 21.037 27.5 21.65Z" stroke="#FFCA42" stroke-width="2" stroke-linecap="round" stroke-linejoin="round"/>
</g>
<defs>
<clipPath id="clip0_56_3298">
<rect width="30" height="30" fill="white" transform="translate(0 0.5)"/>
</clipPath>
</defs>
</svg>
