<svg width="114" height="105" viewBox="0 0 114 105" fill="none" xmlns="http://www.w3.org/2000/svg">
<g id="ri:time-line">
<path id="Vector" d="M40 104.346C17.908 104.346 0 86.4382 0 64.3462C0 42.2542 17.908 24.3462 40 24.3462C62.092 24.3462 80 42.2542 80 64.3462C80 86.4382 62.092 104.346 40 104.346ZM40 96.3462C48.4869 96.3462 56.6263 92.9748 62.6274 86.9736C68.6286 80.9724 72 72.8331 72 64.3462C72 55.8593 68.6286 47.7199 62.6274 41.7188C56.6263 35.7176 48.4869 32.3462 40 32.3462C31.5131 32.3462 23.3737 35.7176 17.3726 41.7188C11.3714 47.7199 8 55.8593 8 64.3462C8 72.8331 11.3714 80.9724 17.3726 86.9736C23.3737 92.9748 31.5131 96.3462 40 96.3462ZM44 64.3462H60V72.3462H36V44.3462H44V64.3462Z" fill="#1B3764"/>
</g>
</svg>
